<mxfile host="app.diagrams.net" agent="Mozilla/5.0 (X11; Linux x86_64) AppleWebKit/537.36 (KHTML, like Gecko) Chrome/127.0.0.0 Safari/537.36" version="24.7.6">
  <diagram name="Page-1" id="dz6uwxHvpKk1CtZ-0RcU">
    <mxGraphModel dx="544" dy="66" grid="0" gridSize="10" guides="1" tooltips="1" connect="1" arrows="1" fold="1" page="0" pageScale="1" pageWidth="827" pageHeight="1169" math="0" shadow="0">
      <root>
        <mxCell id="0" />
        <mxCell id="1" parent="0" />
        <mxCell id="U-yKok-w-9fS8G3YMAYo-5" value="&lt;div&gt;Solutioning of the new platform of WealthSpring&lt;/div&gt;" style="rounded=0;whiteSpace=wrap;html=1;" vertex="1" parent="1">
          <mxGeometry x="395" y="243" width="146" height="77" as="geometry" />
        </mxCell>
        <mxCell id="U-yKok-w-9fS8G3YMAYo-6" style="edgeStyle=orthogonalEdgeStyle;rounded=0;orthogonalLoop=1;jettySize=auto;html=1;exitX=1;exitY=0.5;exitDx=0;exitDy=0;entryX=0;entryY=0.5;entryDx=0;entryDy=0;" edge="1" parent="1" source="U-yKok-w-9fS8G3YMAYo-10" target="U-yKok-w-9fS8G3YMAYo-25">
          <mxGeometry relative="1" as="geometry">
            <Array as="points">
              <mxPoint x="700" y="183" />
              <mxPoint x="700" y="68" />
            </Array>
          </mxGeometry>
        </mxCell>
        <mxCell id="U-yKok-w-9fS8G3YMAYo-7" style="edgeStyle=orthogonalEdgeStyle;rounded=0;orthogonalLoop=1;jettySize=auto;html=1;exitX=1;exitY=0.5;exitDx=0;exitDy=0;entryX=0;entryY=0.5;entryDx=0;entryDy=0;" edge="1" parent="1" source="U-yKok-w-9fS8G3YMAYo-10" target="U-yKok-w-9fS8G3YMAYo-28">
          <mxGeometry relative="1" as="geometry">
            <Array as="points">
              <mxPoint x="700" y="183" />
              <mxPoint x="700" y="188" />
            </Array>
          </mxGeometry>
        </mxCell>
        <mxCell id="U-yKok-w-9fS8G3YMAYo-8" style="edgeStyle=orthogonalEdgeStyle;rounded=0;orthogonalLoop=1;jettySize=auto;html=1;exitX=1;exitY=0.5;exitDx=0;exitDy=0;entryX=0;entryY=0.5;entryDx=0;entryDy=0;" edge="1" parent="1" source="U-yKok-w-9fS8G3YMAYo-10" target="U-yKok-w-9fS8G3YMAYo-26">
          <mxGeometry relative="1" as="geometry">
            <Array as="points">
              <mxPoint x="700" y="183" />
              <mxPoint x="700" y="148" />
            </Array>
          </mxGeometry>
        </mxCell>
        <mxCell id="U-yKok-w-9fS8G3YMAYo-9" style="edgeStyle=orthogonalEdgeStyle;rounded=0;orthogonalLoop=1;jettySize=auto;html=1;exitX=1;exitY=0.5;exitDx=0;exitDy=0;entryX=0;entryY=0.5;entryDx=0;entryDy=0;" edge="1" parent="1" source="U-yKok-w-9fS8G3YMAYo-10" target="U-yKok-w-9fS8G3YMAYo-27">
          <mxGeometry relative="1" as="geometry">
            <Array as="points">
              <mxPoint x="700" y="183" />
              <mxPoint x="700" y="108" />
            </Array>
          </mxGeometry>
        </mxCell>
        <mxCell id="U-yKok-w-9fS8G3YMAYo-10" value="Understand" style="rounded=0;whiteSpace=wrap;html=1;" vertex="1" parent="1">
          <mxGeometry x="590" y="163" width="90" height="40" as="geometry" />
        </mxCell>
        <mxCell id="U-yKok-w-9fS8G3YMAYo-11" style="edgeStyle=orthogonalEdgeStyle;rounded=0;orthogonalLoop=1;jettySize=auto;html=1;exitX=1;exitY=0.5;exitDx=0;exitDy=0;entryX=0;entryY=0.5;entryDx=0;entryDy=0;" edge="1" parent="1" source="U-yKok-w-9fS8G3YMAYo-14" target="U-yKok-w-9fS8G3YMAYo-29">
          <mxGeometry relative="1" as="geometry" />
        </mxCell>
        <mxCell id="U-yKok-w-9fS8G3YMAYo-12" style="edgeStyle=orthogonalEdgeStyle;rounded=0;orthogonalLoop=1;jettySize=auto;html=1;exitX=1;exitY=0.5;exitDx=0;exitDy=0;entryX=0;entryY=0.5;entryDx=0;entryDy=0;" edge="1" parent="1" source="U-yKok-w-9fS8G3YMAYo-14" target="U-yKok-w-9fS8G3YMAYo-31">
          <mxGeometry relative="1" as="geometry" />
        </mxCell>
        <mxCell id="U-yKok-w-9fS8G3YMAYo-13" style="edgeStyle=orthogonalEdgeStyle;rounded=0;orthogonalLoop=1;jettySize=auto;html=1;exitX=1;exitY=0.5;exitDx=0;exitDy=0;entryX=0;entryY=0.5;entryDx=0;entryDy=0;" edge="1" parent="1" source="U-yKok-w-9fS8G3YMAYo-14" target="U-yKok-w-9fS8G3YMAYo-30">
          <mxGeometry relative="1" as="geometry" />
        </mxCell>
        <mxCell id="U-yKok-w-9fS8G3YMAYo-14" value="Functional requirements" style="rounded=0;whiteSpace=wrap;html=1;" vertex="1" parent="1">
          <mxGeometry x="594" y="368" width="90" height="40" as="geometry" />
        </mxCell>
        <mxCell id="U-yKok-w-9fS8G3YMAYo-15" style="edgeStyle=orthogonalEdgeStyle;rounded=0;orthogonalLoop=1;jettySize=auto;html=1;exitX=0;exitY=0.5;exitDx=0;exitDy=0;entryX=1;entryY=0.5;entryDx=0;entryDy=0;" edge="1" parent="1" source="U-yKok-w-9fS8G3YMAYo-19" target="U-yKok-w-9fS8G3YMAYo-36">
          <mxGeometry relative="1" as="geometry" />
        </mxCell>
        <mxCell id="U-yKok-w-9fS8G3YMAYo-16" style="edgeStyle=orthogonalEdgeStyle;rounded=0;orthogonalLoop=1;jettySize=auto;html=1;exitX=0;exitY=0.5;exitDx=0;exitDy=0;entryX=1;entryY=0.5;entryDx=0;entryDy=0;" edge="1" parent="1" source="U-yKok-w-9fS8G3YMAYo-19" target="U-yKok-w-9fS8G3YMAYo-37">
          <mxGeometry relative="1" as="geometry" />
        </mxCell>
        <mxCell id="U-yKok-w-9fS8G3YMAYo-17" style="edgeStyle=orthogonalEdgeStyle;rounded=0;orthogonalLoop=1;jettySize=auto;html=1;exitX=0;exitY=0.5;exitDx=0;exitDy=0;entryX=1;entryY=0.5;entryDx=0;entryDy=0;" edge="1" parent="1" source="U-yKok-w-9fS8G3YMAYo-19" target="U-yKok-w-9fS8G3YMAYo-38">
          <mxGeometry relative="1" as="geometry" />
        </mxCell>
        <mxCell id="U-yKok-w-9fS8G3YMAYo-18" style="edgeStyle=orthogonalEdgeStyle;rounded=0;orthogonalLoop=1;jettySize=auto;html=1;exitX=0;exitY=0.5;exitDx=0;exitDy=0;entryX=1;entryY=0.5;entryDx=0;entryDy=0;" edge="1" parent="1" source="U-yKok-w-9fS8G3YMAYo-19" target="U-yKok-w-9fS8G3YMAYo-39">
          <mxGeometry relative="1" as="geometry" />
        </mxCell>
        <mxCell id="U-yKok-w-9fS8G3YMAYo-19" value="UI Design" style="rounded=0;whiteSpace=wrap;html=1;" vertex="1" parent="1">
          <mxGeometry x="245" y="278" width="90" height="40" as="geometry" />
        </mxCell>
        <mxCell id="U-yKok-w-9fS8G3YMAYo-20" style="edgeStyle=orthogonalEdgeStyle;rounded=0;orthogonalLoop=1;jettySize=auto;html=1;exitX=0;exitY=0.5;exitDx=0;exitDy=0;entryX=1;entryY=0.5;entryDx=0;entryDy=0;" edge="1" parent="1" source="U-yKok-w-9fS8G3YMAYo-24" target="U-yKok-w-9fS8G3YMAYo-58">
          <mxGeometry relative="1" as="geometry" />
        </mxCell>
        <mxCell id="U-yKok-w-9fS8G3YMAYo-21" style="edgeStyle=orthogonalEdgeStyle;rounded=0;orthogonalLoop=1;jettySize=auto;html=1;exitX=0;exitY=0.5;exitDx=0;exitDy=0;entryX=1;entryY=0.5;entryDx=0;entryDy=0;" edge="1" parent="1" source="U-yKok-w-9fS8G3YMAYo-24" target="U-yKok-w-9fS8G3YMAYo-34">
          <mxGeometry relative="1" as="geometry" />
        </mxCell>
        <mxCell id="U-yKok-w-9fS8G3YMAYo-22" style="edgeStyle=orthogonalEdgeStyle;rounded=0;orthogonalLoop=1;jettySize=auto;html=1;exitX=0;exitY=0.5;exitDx=0;exitDy=0;entryX=1;entryY=0.5;entryDx=0;entryDy=0;" edge="1" parent="1" source="U-yKok-w-9fS8G3YMAYo-24" target="U-yKok-w-9fS8G3YMAYo-33">
          <mxGeometry relative="1" as="geometry" />
        </mxCell>
        <mxCell id="U-yKok-w-9fS8G3YMAYo-23" style="edgeStyle=orthogonalEdgeStyle;rounded=0;orthogonalLoop=1;jettySize=auto;html=1;exitX=0;exitY=0.5;exitDx=0;exitDy=0;entryX=1;entryY=0.5;entryDx=0;entryDy=0;" edge="1" parent="1" source="U-yKok-w-9fS8G3YMAYo-24" target="U-yKok-w-9fS8G3YMAYo-32">
          <mxGeometry relative="1" as="geometry" />
        </mxCell>
        <mxCell id="U-yKok-w-9fS8G3YMAYo-24" value="Non Functional requirements" style="rounded=0;whiteSpace=wrap;html=1;" vertex="1" parent="1">
          <mxGeometry x="243" y="139" width="90" height="40" as="geometry" />
        </mxCell>
        <mxCell id="U-yKok-w-9fS8G3YMAYo-25" value="What area the company the works in?" style="rounded=0;whiteSpace=wrap;html=1;" vertex="1" parent="1">
          <mxGeometry x="730" y="53" width="220" height="30" as="geometry" />
        </mxCell>
        <mxCell id="U-yKok-w-9fS8G3YMAYo-26" value="Why this domain exists" style="rounded=0;whiteSpace=wrap;html=1;" vertex="1" parent="1">
          <mxGeometry x="730" y="133" width="140" height="30" as="geometry" />
        </mxCell>
        <mxCell id="U-yKok-w-9fS8G3YMAYo-27" value="History and key factors which accelerated evolution in this domain" style="rounded=0;whiteSpace=wrap;html=1;" vertex="1" parent="1">
          <mxGeometry x="730" y="93" width="370" height="30" as="geometry" />
        </mxCell>
        <mxCell id="U-yKok-w-9fS8G3YMAYo-28" value="What are the leaders in this domain" style="rounded=0;whiteSpace=wrap;html=1;" vertex="1" parent="1">
          <mxGeometry x="730" y="173" width="200" height="30" as="geometry" />
        </mxCell>
        <mxCell id="U-yKok-w-9fS8G3YMAYo-29" value="Who are the customers in this domain" style="rounded=0;whiteSpace=wrap;html=1;" vertex="1" parent="1">
          <mxGeometry x="734" y="358" width="220" height="30" as="geometry" />
        </mxCell>
        <mxCell id="U-yKok-w-9fS8G3YMAYo-30" value="What are the needs of these customers" style="rounded=0;whiteSpace=wrap;html=1;" vertex="1" parent="1">
          <mxGeometry x="734" y="438" width="225" height="30" as="geometry" />
        </mxCell>
        <mxCell id="U-yKok-w-9fS8G3YMAYo-31" value="Which of the customers is the company serving" style="rounded=0;whiteSpace=wrap;html=1;" vertex="1" parent="1">
          <mxGeometry x="734" y="398" width="260" height="30" as="geometry" />
        </mxCell>
        <mxCell id="U-yKok-w-9fS8G3YMAYo-32" value="Scalability" style="rounded=0;whiteSpace=wrap;html=1;" vertex="1" parent="1">
          <mxGeometry x="-47" y="39" width="245" height="30" as="geometry" />
        </mxCell>
        <mxCell id="U-yKok-w-9fS8G3YMAYo-33" value="Reliability" style="rounded=0;whiteSpace=wrap;html=1;" vertex="1" parent="1">
          <mxGeometry x="-97" y="79" width="295" height="30" as="geometry" />
        </mxCell>
        <mxCell id="U-yKok-w-9fS8G3YMAYo-34" value="Security" style="rounded=0;whiteSpace=wrap;html=1;" vertex="1" parent="1">
          <mxGeometry x="43" y="119" width="155" height="30" as="geometry" />
        </mxCell>
        <mxCell id="U-yKok-w-9fS8G3YMAYo-35" value="Monitoring and alerts" style="rounded=0;whiteSpace=wrap;html=1;" vertex="1" parent="1">
          <mxGeometry x="63" y="159" width="135" height="30" as="geometry" />
        </mxCell>
        <mxCell id="U-yKok-w-9fS8G3YMAYo-36" value="What products and services does the company offer" style="rounded=0;whiteSpace=wrap;html=1;" vertex="1" parent="1">
          <mxGeometry x="-95" y="278" width="295" height="30" as="geometry" />
        </mxCell>
        <mxCell id="U-yKok-w-9fS8G3YMAYo-37" value="What problems do they solve" style="rounded=0;whiteSpace=wrap;html=1;" vertex="1" parent="1">
          <mxGeometry x="30" y="318" width="170" height="30" as="geometry" />
        </mxCell>
        <mxCell id="U-yKok-w-9fS8G3YMAYo-38" value="How are the capabilities consumed by the customers" style="rounded=0;whiteSpace=wrap;html=1;" vertex="1" parent="1">
          <mxGeometry x="-95" y="358" width="295" height="30" as="geometry" />
        </mxCell>
        <mxCell id="U-yKok-w-9fS8G3YMAYo-39" value="What are the key capabilities being offered (must have features)" style="rounded=0;whiteSpace=wrap;html=1;" vertex="1" parent="1">
          <mxGeometry x="-150" y="398" width="350" height="30" as="geometry" />
        </mxCell>
        <mxCell id="U-yKok-w-9fS8G3YMAYo-49" style="edgeStyle=orthogonalEdgeStyle;rounded=0;orthogonalLoop=1;jettySize=auto;html=1;exitX=0;exitY=0.5;exitDx=0;exitDy=0;entryX=1;entryY=0.5;entryDx=0;entryDy=0;" edge="1" parent="1" source="U-yKok-w-9fS8G3YMAYo-53" target="U-yKok-w-9fS8G3YMAYo-54">
          <mxGeometry relative="1" as="geometry" />
        </mxCell>
        <mxCell id="U-yKok-w-9fS8G3YMAYo-50" style="edgeStyle=orthogonalEdgeStyle;rounded=0;orthogonalLoop=1;jettySize=auto;html=1;exitX=0;exitY=0.5;exitDx=0;exitDy=0;entryX=1;entryY=0.5;entryDx=0;entryDy=0;" edge="1" parent="1" source="U-yKok-w-9fS8G3YMAYo-53" target="U-yKok-w-9fS8G3YMAYo-55">
          <mxGeometry relative="1" as="geometry" />
        </mxCell>
        <mxCell id="U-yKok-w-9fS8G3YMAYo-51" style="edgeStyle=orthogonalEdgeStyle;rounded=0;orthogonalLoop=1;jettySize=auto;html=1;exitX=0;exitY=0.5;exitDx=0;exitDy=0;entryX=1;entryY=0.5;entryDx=0;entryDy=0;" edge="1" parent="1" source="U-yKok-w-9fS8G3YMAYo-53" target="U-yKok-w-9fS8G3YMAYo-56">
          <mxGeometry relative="1" as="geometry" />
        </mxCell>
        <mxCell id="U-yKok-w-9fS8G3YMAYo-52" style="edgeStyle=orthogonalEdgeStyle;rounded=0;orthogonalLoop=1;jettySize=auto;html=1;exitX=0;exitY=0.5;exitDx=0;exitDy=0;entryX=1;entryY=0.5;entryDx=0;entryDy=0;" edge="1" parent="1" source="U-yKok-w-9fS8G3YMAYo-53" target="U-yKok-w-9fS8G3YMAYo-57">
          <mxGeometry relative="1" as="geometry" />
        </mxCell>
        <mxCell id="U-yKok-w-9fS8G3YMAYo-53" value="User experience" style="rounded=0;whiteSpace=wrap;html=1;" vertex="1" parent="1">
          <mxGeometry x="235" y="468" width="90" height="40" as="geometry" />
        </mxCell>
        <mxCell id="U-yKok-w-9fS8G3YMAYo-54" value="What products and services does the company offer" style="rounded=0;whiteSpace=wrap;html=1;" vertex="1" parent="1">
          <mxGeometry x="-105" y="468" width="295" height="30" as="geometry" />
        </mxCell>
        <mxCell id="U-yKok-w-9fS8G3YMAYo-55" value="What problems do they solve" style="rounded=0;whiteSpace=wrap;html=1;" vertex="1" parent="1">
          <mxGeometry x="20" y="508" width="170" height="30" as="geometry" />
        </mxCell>
        <mxCell id="U-yKok-w-9fS8G3YMAYo-56" value="How are the capabilities consumed by the customers" style="rounded=0;whiteSpace=wrap;html=1;" vertex="1" parent="1">
          <mxGeometry x="-105" y="548" width="295" height="30" as="geometry" />
        </mxCell>
        <mxCell id="U-yKok-w-9fS8G3YMAYo-57" value="What are the key capabilities being offered (must have features)" style="rounded=0;whiteSpace=wrap;html=1;" vertex="1" parent="1">
          <mxGeometry x="-160" y="588" width="350" height="30" as="geometry" />
        </mxCell>
        <mxCell id="U-yKok-w-9fS8G3YMAYo-58" value="Availability" style="rounded=0;whiteSpace=wrap;html=1;" vertex="1" parent="1">
          <mxGeometry x="63" y="200" width="135" height="30" as="geometry" />
        </mxCell>
        <mxCell id="U-yKok-w-9fS8G3YMAYo-66" value="" style="endArrow=classic;html=1;rounded=0;fontSize=12;startSize=8;endSize=8;curved=1;entryX=1;entryY=0.5;entryDx=0;entryDy=0;" edge="1" parent="1" target="U-yKok-w-9fS8G3YMAYo-35">
          <mxGeometry width="50" height="50" relative="1" as="geometry">
            <mxPoint x="220" y="174" as="sourcePoint" />
            <mxPoint x="482" y="246" as="targetPoint" />
          </mxGeometry>
        </mxCell>
      </root>
    </mxGraphModel>
  </diagram>
</mxfile>
